# xmcd CD database file
#
# Track frame offsets:
#	150
#	20521
#	46711
#	68309
#	88146
#	108000
#	127261
#	149587
#	173958
#	188880
#	209895
#
# Disc length: 3071 seconds
#
# Revision: 0
# Processed by: cddbd v1.5.2PL0 Copyright (c) Steve Scherf et al.
# Submitted via: CDex 1.79
#
DISCID=9f0bfd0b
DTITLE=Gil Evans - Gil Evans and Ten 1-7, New Bottles Old Wine 8-11
DYEAR=1957
DGENRE=Jazz
TTITLE0=Remember
TTITLE1=Ella Speed
TTITLE2=Big Stuff
TTITLE3=Nobody's Heart
TTITLE4=Just One of Those Things
TTITLE5=If You Could See Me Now
TTITLE6=Jambangle
TTITLE7=St. Louis Blues
TTITLE8=King Porter Stomp
TTITLE9=Willow Tree
TTITLE10=Struttin' With Some Barbeque
EXTD=YEAR: 1957
EXTT0=
EXTT1=
EXTT2=
EXTT3=
EXTT4=
EXTT5=
EXTT6=
EXTT7=
EXTT8=
EXTT9=
EXTT10=
PLAYORDER=
